<svg version="1.1" id="Layer_1" xmlns="http://www.w3.org/2000/svg" xmlns:xlink="http://www.w3.org/1999/xlink" x="0px" y="0px"
	 width="100%" viewBox="0 0 1024 1024" enable-background="new 0 0 1024 1024" xml:space="preserve">
<path fill="#000000" opacity="1.000000" stroke="none" 
	d="
M723.034302,219.830017 
	C796.499756,250.998016 838.926025,306.784912 855.273438,383.551300 
	C857.531799,394.156464 858.342285,404.924316 858.319031,415.793213 
	C858.223877,460.287933 858.748474,504.789093 858.168030,549.276428 
	C857.452209,604.138489 841.217773,653.984253 805.894165,696.485535 
	C772.275879,736.934937 729.247620,762.416687 677.658691,773.291260 
	C663.576111,776.259766 649.407349,777.497070 635.012878,777.424255 
	C596.518250,777.229675 558.021729,777.435730 519.526611,777.296814 
	C515.219910,777.281250 511.841217,778.423279 508.680695,781.231689 
	C465.211548,819.858887 414.304535,842.366394 357.035187,851.015137 
	C337.323975,853.991821 317.460388,852.661743 297.657104,853.011780 
	C293.158661,853.091309 288.656982,853.012146 284.159576,853.120483 
	C275.256531,853.334839 268.147522,850.195312 263.889130,842.072571 
	C259.628998,833.946655 261.983032,826.669250 267.030609,819.716064 
	C278.604004,803.773376 289.098145,787.171875 296.886078,769.004700 
	C299.245209,763.501465 301.146057,757.803467 303.404999,752.255005 
	C304.640015,749.221436 303.814453,747.453857 301.006134,745.769958 
	C279.964539,733.152893 261.469421,717.465027 245.635757,698.735901 
	C217.292130,665.209290 200.128540,626.589905 193.580582,583.218445 
	C191.639557,570.361694 190.752975,557.431702 190.769287,544.423218 
	C190.821960,502.428101 190.604172,460.431793 190.847168,418.438019 
	C191.152161,365.732849 209.796341,319.975433 244.123123,280.328918 
	C267.800507,252.982178 296.312317,232.391998 330.140137,219.476318 
	C355.403015,209.830750 381.624542,204.886185 408.727936,204.886963 
	C488.052094,204.889236 567.376404,204.789719 646.700378,204.907669 
	C672.925659,204.946655 698.366333,209.541077 723.034302,219.830017 
M408.857605,797.338318 
	C439.049530,784.928406 465.568390,767.195862 487.423340,742.807312 
	C490.113892,739.804871 492.964996,738.650818 496.961639,738.659180 
	C545.456848,738.760437 593.952332,738.682312 642.447632,738.751953 
	C647.978638,738.759949 653.488342,738.420044 658.841736,737.337280 
	C716.069458,725.762207 761.520813,697.121033 791.383850,645.797241 
	C808.412415,616.531250 817.741638,585.222412 817.738831,551.248352 
	C817.735901,515.085388 817.898132,478.922058 817.768738,442.759705 
	C817.711060,426.630280 818.689026,410.432251 815.765808,394.417480 
	C805.066284,335.799042 773.678772,291.931671 721.354553,263.476349 
	C697.137756,250.306595 671.227966,243.910431 643.247192,244.138153 
	C566.092773,244.766068 488.930115,244.355316 411.770874,244.463470 
	C402.952362,244.475830 393.953033,244.165161 385.346313,245.716888 
	C329.036896,255.869095 284.889496,284.347931 255.395203,334.003418 
	C240.788879,358.594086 232.268951,385.167450 231.128799,413.933197 
	C229.814880,447.082794 230.683456,480.246063 230.386139,513.401794 
	C230.212814,532.730713 230.341125,552.063232 232.216934,571.316223 
	C235.739182,607.467773 249.790451,639.410156 271.814484,667.973083 
	C289.524872,690.941772 311.829987,708.366028 337.811646,721.091125 
	C341.781769,723.035522 343.381622,725.596741 343.448700,730.003479 
	C343.793823,752.689758 337.940063,773.777283 327.601532,793.779480 
	C324.126617,800.502502 320.511719,807.147583 316.315552,813.884644 
	C348.154602,814.226990 378.666077,808.893311 408.857605,797.338318 
z"/>
<path fill="#000000" opacity="1.000000" stroke="none" 
	d="
M715.126831,880.338257 
	C697.941772,884.098755 680.867798,885.684326 663.821838,887.204529 
	C607.672729,892.212402 551.366821,891.739014 495.083344,891.225525 
	C463.957062,890.941528 432.835236,889.641541 401.808777,887.098083 
	C382.942505,885.551575 364.002563,884.042603 345.547577,879.336853 
	C343.147491,878.724792 340.787781,877.826904 338.541046,876.778992 
	C336.555695,875.853027 334.790253,874.463623 334.754120,871.940979 
	C334.714417,869.166260 336.614960,867.765381 338.829285,866.807861 
	C345.149323,864.075256 351.923157,862.957886 358.622375,861.774536 
	C381.743774,857.690552 405.091858,855.470520 428.484436,853.635071 
	C469.357910,850.427979 510.311554,849.553467 551.274475,850.113953 
	C585.222656,850.578552 619.187317,851.514709 653.009888,854.832336 
	C673.853638,856.876770 694.693420,859.107727 715.176941,863.728821 
	C718.912903,864.571655 722.678467,865.459595 725.948730,867.554260 
	C729.931458,870.105408 730.023010,873.541260 726.264526,876.401306 
	C723.107727,878.803345 719.201843,879.221619 715.126831,880.338257 
z"/>
<path fill="#000000" opacity="1.000000" stroke="none" 
	d="
M324.971344,590.037109 
	C321.526581,586.243652 317.334686,584.089050 313.160522,582.113831 
	C308.335144,579.830322 304.117462,581.984131 300.419159,585.146362 
	C297.407623,587.721375 294.469757,589.847961 290.103607,588.393066 
	C283.285156,586.120911 280.430542,580.703003 282.780273,573.929749 
	C287.189484,561.219971 304.511780,549.248657 319.088989,548.662415 
	C327.254181,548.333984 335.001678,548.950562 341.643066,554.612244 
	C349.807312,561.572205 352.467651,571.763916 348.113739,581.579224 
	C346.327209,585.606689 346.070038,590.643188 340.092102,591.898071 
	C337.744141,592.390869 338.603851,596.890808 341.241272,598.018616 
	C342.310364,598.475769 343.501160,598.707031 344.485260,599.294495 
	C350.460663,602.861694 355.157928,606.982178 354.096954,615.133484 
	C353.327911,621.041931 353.953247,627.083679 353.184235,633.072449 
	C352.503571,638.373474 353.212555,643.688965 354.673248,648.901245 
	C356.023071,653.717896 356.691162,658.623291 356.319000,663.700439 
	C355.891022,669.538940 363.033813,676.680054 369.005066,676.859009 
	C371.679962,676.939148 372.847961,675.341431 373.702911,673.177551 
	C375.770264,667.945007 375.940491,662.523193 375.832886,656.963501 
	C375.467590,638.087830 383.174347,622.748901 398.305176,611.934082 
	C406.290955,606.226196 412.978607,599.455811 419.691986,592.563538 
	C422.459503,589.722290 424.920288,586.540222 425.057526,582.156494 
	C425.255859,575.819519 423.025421,572.037476 417.164490,569.652161 
	C413.440277,568.136475 409.539459,567.408142 405.509735,567.055481 
	C395.606201,566.188477 387.573883,561.776733 381.343628,553.968262 
	C388.276947,548.310791 388.041351,538.683899 380.739532,532.992249 
	C360.113403,516.914429 343.271759,497.640320 330.424927,474.827393 
	C317.886688,452.562378 311.523956,428.774841 311.781952,403.186157 
	C312.045654,377.033875 322.255859,356.870117 346.151794,344.563110 
	C352.366974,341.362061 353.466766,336.463989 349.746399,330.486023 
	C347.782257,327.329987 346.497894,323.978333 345.532623,320.401581 
	C343.548218,313.048431 339.193542,309.521759 331.564636,309.106873 
	C327.843079,308.904449 324.438568,308.464874 321.240448,306.126831 
	C318.648682,304.232086 315.796143,304.643158 314.137573,307.908783 
	C311.030457,314.026550 304.765869,315.097260 299.070068,318.152100 
	C298.602783,314.963593 300.477539,313.806885 301.797028,312.584869 
	C316.267456,299.183380 331.438995,286.813873 349.941925,279.159485 
	C355.669525,276.790100 361.534241,275.016479 367.475647,273.378540 
	C371.448517,272.283203 375.316650,272.131439 379.182098,273.886261 
	C382.877319,275.563812 386.130615,274.909485 389.352814,272.265076 
	C393.566010,268.807312 398.596741,267.011719 404.092682,266.860504 
	C431.572021,266.104462 459.044983,266.723328 487.784119,267.076019 
	C471.723267,271.129211 456.276337,269.993591 441.281433,273.368011 
	C444.793976,275.923920 449.071075,275.691498 452.802734,275.649139 
	C463.253052,275.530518 473.387726,276.763184 483.339386,279.894470 
	C488.292664,281.453033 493.310760,280.954773 498.096039,279.292755 
	C504.448029,277.086609 510.843231,275.658447 517.619446,275.628998 
	C520.635254,275.615906 523.962585,275.393707 526.276489,272.671631 
	C525.001221,268.652985 520.264465,271.056091 518.475708,268.120117 
	C520.138550,266.433350 522.259155,266.977173 524.134277,266.972504 
	C567.121155,266.865814 610.118835,266.217804 653.091309,266.980927 
	C680.433044,267.466492 705.195129,277.401550 727.287781,293.376556 
	C761.493164,318.110168 783.720215,350.848969 792.110352,392.543640 
	C792.241760,393.196991 792.426453,393.852631 792.451782,394.512390 
	C793.429871,419.985901 793.594727,445.463593 792.630981,470.939880 
	C792.514709,474.012787 791.061218,476.639038 788.736938,478.808411 
	C785.937073,481.421661 783.517883,484.478241 780.553894,486.872528 
	C774.957520,491.393158 773.801575,497.286652 774.570740,503.896545 
	C775.776855,514.262634 770.123413,521.675476 760.049927,522.791443 
	C751.621399,523.725159 744.266174,517.301392 743.058105,508.035309 
	C742.699707,505.286438 743.327576,502.719940 744.253906,500.219940 
	C746.122803,495.176147 744.543213,488.563721 740.524597,485.361115 
	C738.299683,483.587952 735.923279,483.553589 733.596069,485.146240 
	C731.809631,486.368805 730.109314,487.716980 728.370239,489.008667 
	C726.179749,490.635529 723.962036,491.154327 721.447693,489.566467 
	C716.524048,486.457031 712.229614,487.096008 708.099121,491.400696 
	C697.606812,502.335388 687.024048,513.188782 676.268372,523.863953 
	C664.876648,535.170532 651.965576,544.111938 636.066467,547.953796 
	C632.654846,548.778259 630.306152,551.300293 627.749817,553.288330 
	C624.729492,555.637268 626.932007,557.659241 629.315186,559.004028 
	C632.208557,560.636780 635.196777,562.101135 638.140381,563.645264 
	C641.180664,565.240051 641.097168,567.097961 638.967896,569.588257 
	C630.836670,579.098083 632.082642,578.597961 639.633423,588.674377 
	C648.228210,600.144165 659.546387,608.468140 669.255615,618.572083 
	C673.519775,623.009521 677.047974,627.468506 676.744812,633.669128 
	C676.108276,646.688904 678.332581,660.062012 672.963501,672.549988 
	C671.251953,676.530945 670.082764,680.699890 668.231445,684.600037 
	C666.852966,687.503967 667.897217,688.954102 670.782593,689.658875 
	C673.820923,690.400940 676.773682,690.034180 679.620789,688.961792 
	C684.538025,687.109680 688.576782,688.834717 690.686829,693.024231 
	C693.157776,697.930481 696.323547,698.465088 700.850220,696.823425 
	C702.155334,696.350098 703.713013,695.571045 705.054871,697.434143 
	C704.275024,699.695129 702.062561,700.235107 700.206726,701.138489 
	C683.454407,709.293396 665.944519,714.333191 647.314026,716.597046 
	C635.073486,718.084473 623.218384,717.563232 611.065186,716.745117 
	C596.818054,715.786133 582.452820,716.615173 568.138855,716.606934 
	C545.165344,716.593628 522.191772,716.497742 499.218292,716.512024 
	C494.226685,716.515137 489.236359,716.889832 484.243378,716.990234 
	C481.598267,717.043396 479.999237,718.649231 478.452576,720.440430 
	C445.947876,758.084778 404.304657,779.887695 356.400146,790.820984 
	C354.946228,791.152771 353.440094,791.288391 351.949799,791.414978 
	C351.152039,791.482727 350.336029,791.335632 349.615784,791.290894 
	C348.575470,789.258545 350.162476,788.337891 350.963654,787.228882 
	C363.534119,769.828918 366.388000,750.057068 365.121338,729.291931 
	C364.878204,725.305786 364.028564,721.332703 364.061798,717.358643 
	C364.123596,709.967224 360.604858,705.732666 353.702820,703.608704 
	C348.590485,702.035645 344.123199,698.994080 339.451385,696.444336 
	C337.297791,695.268982 335.984741,693.858398 337.749146,691.296448 
	C339.157196,689.251770 339.275391,686.911499 338.642365,684.565918 
	C337.562866,680.565796 339.015594,677.908447 342.579285,675.905701 
	C349.986877,671.742737 350.684387,671.129578 348.875427,662.867554 
	C345.622040,648.008240 340.510712,633.863708 329.584473,622.580872 
	C323.584381,616.384888 323.688110,607.054382 329.885773,601.537537 
	C332.852600,598.896667 333.769196,596.655945 329.823486,594.115479 
	C328.160980,593.045105 326.779388,591.538330 324.971344,590.037109 
M349.529022,388.132996 
	C344.944824,398.906067 345.606445,410.092773 347.949249,421.046997 
	C354.619507,452.234772 371.371552,477.878387 394.256287,499.320068 
	C412.046692,515.988586 437.155273,518.278625 458.319305,506.851501 
	C461.642639,505.057098 463.632263,505.549866 466.075867,508.089722 
	C472.745850,515.022583 479.617126,521.761719 486.328369,528.497009 
	C489.980255,527.182800 491.302094,524.057434 493.538971,521.911621 
	C495.976318,519.573486 495.853088,517.610168 493.296936,515.258118 
	C489.134399,511.428101 485.277100,507.267395 481.269165,503.268097 
	C472.978912,494.995819 472.975372,495.002930 478.201355,484.731750 
	C478.578247,483.990967 478.920013,483.228058 479.219788,482.452942 
	C488.998230,457.170654 484.197296,434.233429 465.913330,415.016510 
	C442.880920,390.808868 413.765564,377.387238 380.861298,372.554810 
	C366.387207,370.429047 355.451172,376.260101 349.529022,388.132996 
M616.792847,494.717957 
	C613.845093,494.203552 610.836792,493.914001 607.959167,493.139221 
	C584.077820,486.709717 575.989197,455.308472 594.211426,440.660553 
	C605.459900,431.618500 615.185059,420.681702 625.597168,410.598724 
	C632.538574,403.876892 639.545654,397.221527 646.409851,390.421814 
	C651.591675,385.288727 650.164978,378.458710 643.630859,376.739624 
	C639.919983,375.763306 637.253784,377.829010 634.786560,380.202026 
	C617.016846,397.293182 599.153931,414.288940 581.511536,431.510529 
	C563.612854,448.982208 559.831116,467.415649 569.156616,490.636047 
	C570.320251,493.533630 570.088562,495.388977 567.678162,497.581055 
	C559.915649,504.640472 552.334290,511.903320 544.796875,519.205200 
	C509.379578,553.515869 474.010315,587.876099 438.598755,622.192749 
	C431.660492,628.916443 424.622864,635.537781 417.605988,642.179871 
	C415.163940,644.491455 413.028687,647.027405 411.533295,650.050354 
	C409.151978,654.864380 410.355835,660.783997 414.358215,664.163269 
	C418.172546,667.383728 424.031311,667.744873 428.214294,664.414001 
	C437.370911,657.122986 444.689423,647.946228 452.917267,639.697571 
	C487.387878,605.139709 521.858337,570.581726 556.337219,536.032166 
	C558.460815,533.904236 561.476929,531.886292 561.852417,529.092468 
	C562.652405,523.139343 567.235107,520.622437 570.880798,517.144958 
	C573.533142,514.615051 576.411621,512.266174 578.731079,509.458038 
	C581.521057,506.080231 583.951538,505.904633 587.571899,508.383453 
	C604.161804,519.742676 629.729614,520.949402 647.649048,502.029541 
	C662.532837,486.314911 678.436646,471.566742 693.879883,456.381592 
	C696.610657,453.696503 699.480408,451.122650 701.954590,448.215393 
	C704.394470,445.348511 704.572266,442.007477 701.876404,439.159698 
	C699.100403,436.227203 695.660767,435.270050 691.936035,437.424438 
	C690.665527,438.159363 689.617126,439.310791 688.545654,440.352539 
	C674.331055,454.172699 660.073120,467.949005 645.948975,481.861115 
	C638.040710,489.650604 628.957703,494.611816 616.792847,494.717957 
M497.292664,339.305237 
	C499.428894,341.027985 502.009705,341.745209 504.573059,342.473236 
	C509.114990,343.763153 512.812439,345.949402 514.374146,350.800385 
	C517.297607,359.881104 524.408325,363.164917 533.133057,363.892365 
	C536.153076,364.144165 539.072083,364.457916 541.859314,365.737549 
	C548.061829,368.585083 548.795105,373.381592 543.523743,377.608948 
	C538.844360,381.361481 534.466431,385.466461 529.889954,389.307129 
	C525.105347,393.322510 520.367920,397.661804 512.697571,396.174469 
	C506.493561,394.971375 504.395813,398.188263 505.395294,404.537170 
	C505.999512,408.375214 507.108032,411.919739 509.307709,415.202393 
	C511.344482,418.241974 512.571350,421.667664 513.486755,425.280182 
	C515.570190,433.502014 518.182617,441.569092 518.521606,450.174011 
	C518.667358,453.873779 522.419739,456.507935 524.405884,454.669586 
	C527.355896,451.939209 531.051025,449.922607 532.245117,445.348083 
	C534.348267,437.291290 537.308777,429.503723 542.090393,422.534607 
	C550.541870,410.216614 560.931030,399.649384 572.024719,389.786530 
	C589.310303,374.418793 606.313477,358.683258 625.691101,345.864563 
	C627.146057,344.902039 627.918457,343.787476 628.245789,341.910645 
	C630.387634,329.630127 621.871643,319.813599 609.424438,320.592163 
	C605.723145,320.823700 603.540222,322.507416 603.096191,326.776520 
	C601.546814,341.672394 592.052917,348.855072 577.318542,346.684906 
	C573.157898,346.072052 570.335083,347.396149 570.023376,351.909454 
	C569.789124,355.300598 568.883911,357.979492 564.914673,357.841248 
	C561.041199,357.706299 558.846436,355.265991 558.153137,351.645569 
	C557.577820,348.640686 558.098816,345.646393 559.471252,342.883942 
	C561.978821,337.836639 561.712158,332.540649 560.863220,327.230560 
	C560.228821,323.262115 555.788452,318.973328 552.446411,319.544769 
	C549.354065,320.073517 548.226501,318.859802 547.401978,316.278351 
	C545.899353,311.573883 543.339783,307.439789 539.397644,304.449005 
	C535.926819,301.815826 532.857910,299.016754 530.250916,295.412384 
	C526.184631,289.790405 521.513855,290.107056 517.223389,295.686340 
	C515.997742,297.280212 514.939453,299.470184 512.880066,299.558044 
	C507.777039,299.775696 503.473907,302.769440 498.426758,303.175629 
	C492.362061,303.663757 489.735596,308.403931 492.532806,313.800018 
	C495.254028,319.049469 496.275818,324.452118 495.153290,330.222931 
	C494.547363,333.337952 494.949768,336.173523 497.292664,339.305237 
M569.001160,609.498840 
	C586.587952,626.985107 604.161499,644.484741 621.769165,661.949951 
	C627.563171,667.697144 633.734680,668.177734 638.953430,663.419495 
	C643.921692,658.889587 644.236633,651.836731 639.485046,645.902405 
	C637.204651,643.054382 634.659424,640.380737 631.993835,637.884827 
	C611.460876,618.659790 590.889648,599.475464 570.260559,580.353638 
	C568.377136,578.607788 566.728027,576.353027 562.808289,574.693420 
	C559.116455,578.095093 556.260559,582.262268 552.803223,585.849731 
	C550.199341,588.551697 550.330444,590.518860 552.757996,592.963623 
	C558.035828,598.278748 563.256104,603.651123 569.001160,609.498840 
M455.306122,332.934692 
	C453.833252,327.637115 453.917053,322.264679 456.113770,317.318787 
	C457.927094,313.236084 458.216156,309.480255 455.385406,306.186676 
	C452.409454,302.724060 448.134766,302.422821 443.871735,303.327362 
	C440.466064,304.049988 437.141876,305.168579 433.727661,305.836121 
	C427.419922,307.069397 423.654480,309.988007 424.457611,316.004730 
	C425.876343,326.633270 422.332611,339.847778 436.805420,345.080841 
	C437.102875,345.188416 437.332855,345.478058 437.599609,345.675659 
	C446.213776,352.055939 453.276154,349.253326 455.140198,338.669647 
	C455.424377,337.056061 455.389069,335.386200 455.306122,332.934692 
M656.511780,416.180756 
	C644.462830,427.624908 632.347839,439.000793 620.402649,450.552246 
	C616.511108,454.315552 616.284058,459.412933 619.306519,462.555176 
	C622.264832,465.630768 626.696960,465.440369 630.806335,461.687225 
	C635.218994,457.657166 639.398438,453.371429 643.670044,449.187469 
	C651.506348,441.511841 659.286743,433.778198 667.192871,426.175232 
	C670.195312,423.287964 668.302185,419.998474 668.221802,416.922302 
	C668.177002,415.209564 666.483398,413.864136 664.638733,414.165070 
	C662.088074,414.581177 659.335144,414.173737 656.511780,416.180756 
z"/>
<path fill="#000000" opacity="1.000000" stroke="none" 
	d="
M761.547119,563.475403 
	C764.755432,567.136047 767.534058,570.657166 768.667114,575.151001 
	C769.983765,580.373169 768.311462,584.808411 764.144836,587.247986 
	C759.606628,589.905151 755.605591,588.874695 751.838196,585.562622 
	C743.089050,577.870850 737.382263,578.027893 729.594971,586.077209 
	C724.361267,591.487183 717.569946,592.531799 710.404114,589.029053 
	C703.802246,585.801880 699.751343,577.452271 701.017944,569.682007 
	C702.854492,558.414856 713.603394,549.226379 725.032837,548.633728 
	C739.457153,547.885803 751.250610,553.290283 761.547119,563.475403 
z"/>
<path fill="#000000" opacity="1.000000" stroke="none" 
	d="
M271.019775,449.080627 
	C262.191833,438.270599 254.289352,427.467865 254.855392,412.763611 
	C255.013855,408.647369 256.741882,405.038147 257.258087,401.095520 
	C257.413696,399.906769 258.517975,399.850403 259.464539,399.473419 
	C263.082092,398.032532 266.036530,395.740936 267.950653,392.235565 
	C269.263580,389.831177 270.771240,387.486420 274.061523,388.155182 
	C277.158325,388.784607 277.769348,391.566040 277.830933,393.966919 
	C278.016602,401.207916 280.758179,407.580811 283.953491,413.823517 
	C287.926788,421.586029 288.108276,429.014587 282.925751,436.412445 
	C280.742004,439.529633 279.198792,443.091339 277.304077,446.416565 
	C275.990784,448.721466 274.400848,450.604004 271.019775,449.080627 
z"/>
<path fill="#000000" opacity="1.000000" stroke="none" 
	d="
M305.271790,506.104736 
	C304.875336,515.952087 298.030548,523.269165 289.607330,523.290466 
	C280.812469,523.312744 273.808533,516.487488 273.474243,507.569061 
	C273.105286,497.727081 279.643402,490.725189 289.887634,489.991302 
	C297.697327,489.431854 304.028656,495.885895 305.271790,506.104736 
z"/>
</svg>